<svg width="1024" height="1024" viewBox="0 0 1024 1024" fill="none" xmlns="http://www.w3.org/2000/svg">
    <path d="M853.334 512V892C853.334 893.886 853.334 894.828 852.748 895.414C852.162 896 851.219 896 849.334 896H176.667C173.839 896 172.424 896 171.546 895.121C170.667 894.243 170.667 892.828 170.667 890V688.667C170.667 685.838 170.667 684.424 171.546 683.545C172.424 682.667 173.839 682.667 176.667 682.667H849.334C851.219 682.667 852.162 682.667 852.748 682.081C853.334 681.495 853.334 680.552 853.334 678.667V132C853.334 130.114 853.334 129.172 852.748 128.586C852.162 128 851.219 128 849.334 128H174.667C172.781 128 171.839 128 171.253 128.586C170.667 129.172 170.667 130.114 170.667 132V789.333" stroke="black" stroke-width="20"/>
    <path d="M384 341.333L640 341.333" stroke="black" stroke-width="20" stroke-linecap="round"/>
</svg>
