<svg width="1024" height="1024" viewBox="0 0 1024 1024" fill="none" xmlns="http://www.w3.org/2000/svg">
    <path d="M170.667 188.667C170.667 180.182 170.667 175.939 173.303 173.303C175.939 170.667 180.181 170.667 188.667 170.667H835.333C843.818 170.667 848.061 170.667 850.697 173.303C853.333 175.939 853.333 180.182 853.333 188.667V849.334C853.333 851.219 853.333 852.162 852.747 852.748C852.162 853.334 851.219 853.334 849.333 853.334H188.667C180.181 853.334 175.939 853.334 173.303 850.698C170.667 848.062 170.667 843.819 170.667 835.334V188.667Z" stroke="black" stroke-width="20"/>
    <path d="M384 469.333L640 469.333" stroke="black" stroke-width="20" stroke-linecap="round" stroke-linejoin="round"/>
    <path d="M512 640H640" stroke="black" stroke-width="20" stroke-linecap="round" stroke-linejoin="round"/>
</svg>
