<svg width="1024" height="1024" viewBox="0 0 1024 1024" fill="none" xmlns="http://www.w3.org/2000/svg">
    <path d="M853.333 178.667C853.333 174.896 853.333 173.01 852.162 171.839C850.99 170.667 849.105 170.667 845.333 170.667H178.667C174.895 170.667 173.01 170.667 171.838 171.839C170.667 173.01 170.667 174.896 170.667 178.667V851.334C170.667 852.276 170.667 852.748 170.96 853.041C171.252 853.334 171.724 853.334 172.667 853.334H845.333C849.105 853.334 850.99 853.334 852.162 852.162C853.333 850.99 853.333 849.105 853.333 845.334V178.667Z" stroke="black" stroke-width="20"/>
    <path d="M384 512L640 512" stroke="black" stroke-width="20" stroke-linecap="round" stroke-linejoin="round"/>
    <path d="M512 384L512 640" stroke="black" stroke-width="20" stroke-linecap="round" stroke-linejoin="round"/>
</svg>
