<svg width="1024" height="1024" viewBox="0 0 1024 1024" fill="none" xmlns="http://www.w3.org/2000/svg">
    <path d="M810.667 554.667V890C810.667 892.828 810.667 894.243 809.788 895.121C808.909 896 807.495 896 804.667 896H219.333C216.505 896 215.091 896 214.212 895.121C213.333 894.243 213.333 892.828 213.333 890V134C213.333 131.172 213.333 129.757 214.212 128.879C215.091 128 216.505 128 219.333 128H512" stroke="#222222" stroke-width="20" stroke-linecap="round"/>
    <path d="M768 128L768 384" stroke="#222222" stroke-width="20" stroke-linecap="round"/>
    <path d="M896 256L640 256" stroke="#222222" stroke-width="20" stroke-linecap="round"/>
    <path d="M384 554.667L640 554.667" stroke="#222222" stroke-width="20" stroke-linecap="round"/>
    <path d="M384 384L554.667 384" stroke="#222222" stroke-width="20" stroke-linecap="round"/>
    <path d="M384 725.333L554.667 725.333" stroke="#222222" stroke-width="20" stroke-linecap="round"/>
</svg>
