<svg width="1024" height="1024" viewBox="0 0 1024 1024" fill="none" xmlns="http://www.w3.org/2000/svg">
    <path d="M128 341.333H892.8C893.92 341.333 894.48 341.333 894.908 341.551C895.284 341.743 895.59 342.049 895.782 342.425C896 342.853 896 343.413 896 344.533V850.133C896 851.253 896 851.814 895.782 852.241C895.59 852.618 895.284 852.924 894.908 853.115C894.48 853.333 893.92 853.333 892.8 853.333H131.2C130.08 853.333 129.52 853.333 129.092 853.115C128.716 852.924 128.41 852.618 128.218 852.241C128 851.814 128 851.253 128 850.133V341.333Z" stroke="black" stroke-width="20"/>
    <path d="M128 243.333C128 229.191 128 222.12 132.393 217.727C136.787 213.333 143.858 213.333 158 213.333H414.24C420.372 213.333 423.437 213.333 426.194 214.475C428.95 215.617 431.118 217.785 435.453 222.12L554.667 341.333H128V243.333Z" stroke="black" stroke-width="20"/>
    <path d="M405.333 704L618.667 490.667M618.667 704L405.333 490.667" stroke="black" stroke-width="20"/>
</svg>
