<svg width="1024" height="1024" viewBox="0 0 1024 1024" fill="none" xmlns="http://www.w3.org/2000/svg">
    <path d="M896 682.666C896 580.823 855.543 483.151 783.529 411.137C711.515 339.123 613.843 298.666 512 298.666C410.157 298.666 312.485 339.123 240.471 411.137C168.457 483.151 128 580.823 128 682.666L341.549 682.666C341.549 637.46 359.507 594.105 391.473 562.139C423.439 530.173 466.794 512.215 512 512.215C557.206 512.215 600.561 530.173 632.527 562.139C664.493 594.105 682.451 637.46 682.451 682.666H896Z" stroke="black" stroke-width="20"/>
    <path d="M512 298.666L512 511.999" stroke="black" stroke-width="20"/>
    <path d="M783.528 411.125L655.528 539.125" stroke="black" stroke-width="20"/>
    <path d="M240.47 411.125L384.006 554.661" stroke="black" stroke-width="20"/>
</svg>
