<svg width="1024" height="1024" viewBox="0 0 1024 1024" fill="none" xmlns="http://www.w3.org/2000/svg">
    <path d="M223.51 631.967C240.527 695.474 278.023 751.591 330.183 791.615C382.344 831.639 446.253 853.333 512 853.333C577.747 853.333 641.656 831.639 693.817 791.615C745.977 751.591 783.473 695.474 800.49 631.967" stroke="black" stroke-width="20"/>
    <path d="M512 554.667L505.753 562.475L512 567.473L518.247 562.475L512 554.667ZM522 170.667C522 165.144 517.523 160.667 512 160.667C506.477 160.667 502 165.144 502 170.667L522 170.667ZM292.42 391.809L505.753 562.475L518.247 546.858L304.914 376.191L292.42 391.809ZM518.247 562.475L731.58 391.809L719.086 376.191L505.753 546.858L518.247 562.475ZM522 554.667L522 170.667L502 170.667L502 554.667L522 554.667Z" fill="black"/>
</svg>
