<svg width="1024" height="1024" viewBox="0 0 1024 1024" fill="none" xmlns="http://www.w3.org/2000/svg">
    <path d="M256 640.001V213.834C256 213.598 256 213.48 256.073 213.407C256.146 213.334 256.264 213.334 256.5 213.334H766.793C767.307 213.334 767.564 213.334 767.627 213.488C767.691 213.643 767.51 213.824 767.146 214.188L554.95 426.384C554.816 426.518 554.75 426.584 554.75 426.667C554.75 426.75 554.816 426.817 554.95 426.95L767.146 639.147C767.51 639.51 767.691 639.692 767.627 639.846C767.564 640.001 767.307 640.001 766.793 640.001H256ZM256 640.001V810.667" stroke="black" stroke-width="20" stroke-linecap="round"/>
</svg>
