<svg width="1024" height="1024" viewBox="0 0 1024 1024" fill="none" xmlns="http://www.w3.org/2000/svg">
    <path d="M128 258C128 257.057 128 256.586 128.293 256.293C128.586 256 129.057 256 130 256H724.263C724.787 256 725.049 256 725.27 256.118C725.491 256.237 725.636 256.455 725.927 256.891L895.26 510.891C895.619 511.428 895.798 511.697 895.798 512C895.798 512.303 895.619 512.572 895.26 513.109L725.927 767.109C725.636 767.545 725.491 767.763 725.27 767.882C725.049 768 724.787 768 724.263 768H130C129.057 768 128.586 768 128.293 767.707C128 767.414 128 766.943 128 766V258Z" stroke="black" stroke-width="20"/>
    <ellipse cx="640" cy="512.001" rx="42.6667" ry="42.6667" fill="black" stroke="black" stroke-width="20"/>
</svg>
