<svg width="1024" height="1024" viewBox="0 0 1024 1024" fill="none" xmlns="http://www.w3.org/2000/svg">
    <path d="M681.302 128.909C681.955 128.474 682.282 128.256 682.638 128.292C682.994 128.327 683.271 128.604 683.826 129.159L894.841 340.174C895.396 340.729 895.673 341.006 895.708 341.362C895.744 341.718 895.526 342.045 895.091 342.698L727.089 594.7C726.214 596.012 725.776 596.669 725.477 597.393C725.177 598.117 725.022 598.89 724.713 600.437L683.264 807.682C682.994 809.03 682.859 809.703 682.359 809.905C681.859 810.107 681.294 809.716 680.164 808.934L415.798 625.911C410.58 622.299 407.971 620.493 405.739 618.261C403.507 616.029 401.701 613.42 398.089 608.202L215.066 343.836C214.284 342.706 213.893 342.141 214.095 341.641C214.297 341.141 214.97 341.006 216.318 340.736L423.563 299.287C425.11 298.978 425.883 298.823 426.607 298.523C427.331 298.224 427.988 297.786 429.3 296.911L681.302 128.909Z" stroke="black" stroke-width="20"/>
    <path d="M213.333 810.666L405.333 618.666" stroke="black" stroke-width="20" stroke-linecap="round"/>
</svg>
