<svg width="1024" height="1024" viewBox="0 0 1024 1024" fill="none" xmlns="http://www.w3.org/2000/svg">
    <path stroke-width="20" d="M136 128.5H888C889.9 128.5 891.274 128.501 892.323 128.642C893.356 128.781 893.997 129.048 894.475 129.525C894.952 130.003 895.219 130.644 895.358 131.678C895.499 132.726 895.5 134.1 895.5 136V888C895.5 889.9 895.499 891.274 895.358 892.323C895.219 893.356 894.952 893.997 894.475 894.475C893.997 894.952 893.356 895.219 892.323 895.358C891.274 895.499 889.9 895.5 888 895.5H136C134.1 895.5 132.726 895.499 131.678 895.358C130.644 895.219 130.003 894.952 129.525 894.475C129.048 893.997 128.781 893.356 128.642 892.323C128.501 891.274 128.5 889.9 128.5 888V136C128.5 134.1 128.501 132.726 128.642 131.678C128.781 130.644 129.048 130.003 129.525 129.525C130.003 129.048 130.644 128.781 131.678 128.642C132.726 128.501 134.1 128.5 136 128.5Z" stroke="black"/>
    <path stroke-width="20" d="M512 341.333L512 682.667" stroke="black" stroke-linejoin="round"/>
    <path stroke-width="20" d="M682.667 512L341.333 512" stroke="black" stroke-linejoin="round"/>
</svg>
