<svg width="1024" height="1024" viewBox="0 0 1024 1024" fill="none" xmlns="http://www.w3.org/2000/svg">
    <path d="M426.667 170.667L433.738 163.595L426.667 156.524L419.596 163.595L426.667 170.667ZM768 863.333C773.523 863.333 778 858.856 778 853.333C778 847.81 773.523 843.333 768 843.333L768 863.333ZM647.071 376.929L433.738 163.595L419.596 177.738L632.929 391.071L647.071 376.929ZM419.596 163.595L206.262 376.929L220.404 391.071L433.738 177.738L419.596 163.595ZM416.667 170.667L416.667 847.333L436.667 847.333L436.667 170.667L416.667 170.667ZM432.667 863.333L768 863.333L768 843.333L432.667 843.333L432.667 863.333ZM416.667 847.333C416.667 856.17 423.83 863.333 432.667 863.333L432.667 843.333C434.876 843.333 436.667 845.124 436.667 847.333L416.667 847.333Z" fill="black"/>
</svg>
