<svg width="1024" height="1024" viewBox="0 0 1024 1024" fill="none" xmlns="http://www.w3.org/2000/svg">
    <path d="M512 682.667L504.929 689.738L512 696.809L519.071 689.738L512 682.667ZM522 170.667C522 165.144 517.523 160.667 512 160.667C506.477 160.667 502 165.144 502 170.667L522 170.667ZM248.929 433.738L504.929 689.738L519.071 675.595L263.071 419.595L248.929 433.738ZM519.071 689.738L775.071 433.738L760.929 419.595L504.929 675.595L519.071 689.738ZM522 682.667L522 170.667L502 170.667L502 682.667L522 682.667Z" fill="black"/>
    <path d="M213.333 896L810.666 896" stroke="black" stroke-width="20"/>
</svg>
