<svg width="1024" height="1024" viewBox="0 0 1024 1024" fill="none" xmlns="http://www.w3.org/2000/svg">
    <path d="M512 213.333L519.071 206.262L512 199.191L504.929 206.262L512 213.333ZM502 725.333C502 730.856 506.477 735.333 512 735.333C517.523 735.333 522 730.856 522 725.333L502 725.333ZM775.071 462.262L519.071 206.262L504.929 220.404L760.929 476.404L775.071 462.262ZM504.929 206.262L248.929 462.262L263.071 476.404L519.071 220.404L504.929 206.262ZM502 213.333L502 725.333L522 725.333L522 213.333L502 213.333Z" fill="black"/>
    <path d="M213.333 896L810.666 896" stroke="black" stroke-width="20"/>
</svg>
