<svg width="1024" height="1024" viewBox="0 0 1024 1024" fill="none" xmlns="http://www.w3.org/2000/svg">
    <path d="M170.667 213.333V203.333H160.667V213.333H170.667ZM504.929 561.738C508.834 565.643 515.166 565.643 519.071 561.738C522.976 557.832 522.976 551.501 519.071 547.596L504.929 561.738ZM180.667 469.333V213.333H160.667V469.333H180.667ZM170.667 223.333H426.666V203.333H170.667V223.333ZM163.595 220.404L504.929 561.738L519.071 547.596L177.738 206.262L163.595 220.404Z" fill="black"/>
    <path d="M896 554.667H516C514.114 554.667 513.172 554.667 512.586 555.253C512 555.838 512 556.781 512 558.667V810.667" stroke="black" stroke-width="20" stroke-linecap="round"/>
</svg>
