<svg width="1024" height="1024" viewBox="0 0 1024 1024" fill="none" xmlns="http://www.w3.org/2000/svg">
    <path d="M341.333 128H131C129.586 128 128.879 128 128.439 128.439C128 128.879 128 129.586 128 131V341.333" stroke="black" stroke-width="20" stroke-linecap="round"/>
    <path d="M341.333 896H131C129.586 896 128.879 896 128.439 895.561C128 895.121 128 894.414 128 893V682.667" stroke="black" stroke-width="20" stroke-linecap="round"/>
    <path d="M682.667 128H893C894.414 128 895.121 128 895.561 128.439C896 128.879 896 129.586 896 131V341.333" stroke="black" stroke-width="20" stroke-linecap="round"/>
    <path d="M682.667 896H893C894.414 896 895.121 896 895.561 895.561C896 895.121 896 894.414 896 893V682.667" stroke="black" stroke-width="20" stroke-linecap="round"/>
</svg>
