<svg width="1024" height="1024" viewBox="0 0 1024 1024" fill="none" xmlns="http://www.w3.org/2000/svg">
    <path d="M128 384V890C128 892.828 128 894.243 128.879 895.121C129.757 896 131.172 896 134 896H890C892.828 896 894.243 896 895.121 895.121C896 894.243 896 892.828 896 890V134C896 131.172 896 129.757 895.121 128.879C894.243 128 892.828 128 890 128H384" stroke="black" stroke-width="20" stroke-linecap="round"/>
    <path d="M640 640V650H650V640H640ZM305.738 291.596C301.832 287.69 295.501 287.69 291.596 291.596C287.69 295.501 287.69 301.832 291.596 305.738L305.738 291.596ZM630 341.333V640H650V341.333H630ZM640 630H341.333V650H640V630ZM647.071 632.929L305.738 291.596L291.596 305.738L632.929 647.071L647.071 632.929Z" fill="black"/>
</svg>
