<svg width="1024" height="1024" viewBox="0 0 1024 1024" fill="none" xmlns="http://www.w3.org/2000/svg">
    <circle cx="512" cy="512" r="288.667" stroke="black" stroke-width="20"/>
    <path d="M362.667 298.667L383.907 128.745C383.96 128.319 384.322 128 384.75 128H639.25C639.678 128 640.04 128.319 640.093 128.745L661.333 298.667" stroke="black" stroke-width="20" stroke-linecap="round" stroke-linejoin="round"/>
    <path d="M362.667 725.333L383.907 895.255C383.96 895.681 384.322 896 384.75 896H639.25C639.678 896 640.04 895.681 640.093 895.255L661.333 725.333" stroke="black" stroke-width="20" stroke-linecap="round" stroke-linejoin="round"/>
    <path d="M809.817 469.333H746.667V554.667H809.817C810.286 554.667 810.667 554.286 810.667 553.817V470.183C810.667 469.714 810.286 469.333 809.817 469.333Z" fill="black"/>
    <path d="M512 512L469.333 384" stroke="black" stroke-width="20" stroke-linecap="round"/>
    <path d="M512 512L618.667 554.685" stroke="black" stroke-width="20" stroke-linecap="round"/>
</svg>
