<svg width="1024" height="1024" viewBox="0 0 1024 1024" fill="none" xmlns="http://www.w3.org/2000/svg">
    <path d="M128 469.333V593.333C128 595.219 128 596.162 128.586 596.748C129.172 597.333 130.114 597.333 132 597.333H339.892C340.588 597.333 340.935 597.333 341.197 597.522C341.459 597.711 341.569 598.041 341.789 598.701L383.544 723.966C383.764 724.626 383.874 724.956 384.136 725.145C384.398 725.333 384.746 725.333 385.442 725.333H638.558C639.254 725.333 639.602 725.333 639.864 725.145C640.126 724.956 640.236 724.626 640.456 723.966L682.211 598.701C682.431 598.041 682.541 597.711 682.803 597.522C683.065 597.333 683.412 597.333 684.108 597.333H892C893.886 597.333 894.828 597.333 895.414 596.748C896 596.162 896 595.219 896 593.333V469.333" stroke="black" stroke-width="20"/>
    <path d="M341.333 384L512 512M512 512L682.667 384M512 512L512 85.3334" stroke="black" stroke-width="20"/>
    <path d="M682.667 213.333H892C893.886 213.333 894.828 213.333 895.414 213.919C896 214.505 896 215.448 896 217.333V892C896 893.886 896 894.828 895.414 895.414C894.828 896 893.886 896 892 896H132C130.114 896 129.172 896 128.586 895.414C128 894.828 128 893.886 128 892V217.333C128 215.448 128 214.505 128.586 213.919C129.172 213.333 130.114 213.333 132 213.333H341.333" stroke="black" stroke-width="20"/>
</svg>
