<svg width="1024" height="1024" viewBox="0 0 1024 1024" fill="none" xmlns="http://www.w3.org/2000/svg">
    <path d="M758 341.333C758 477.195 647.862 587.333 512 587.333C376.138 587.333 266 477.195 266 341.333C266 205.471 376.138 95.3333 512 95.3333C647.862 95.3333 758 205.471 758 341.333Z" stroke="black" stroke-width="20"/>
    <path d="M512 213.333V469.333" stroke="black" stroke-width="20"/>
    <path d="M640 341.333H384" stroke="black" stroke-width="20"/>
    <path d="M896 597.333H726.404C725.88 597.333 725.618 597.333 725.397 597.452C725.176 597.57 725.03 597.788 724.74 598.224L640.594 724.443C640.303 724.879 640.158 725.097 639.937 725.215C639.716 725.333 639.454 725.333 638.93 725.333H385.07C384.546 725.333 384.284 725.333 384.063 725.215C383.842 725.097 383.697 724.879 383.406 724.443L299.26 598.224C298.97 597.788 298.824 597.57 298.603 597.452C298.382 597.333 298.12 597.333 297.596 597.333H128" stroke="black" stroke-width="20"/>
    <path d="M298.667 426.667H256.414C256.149 426.667 255.895 426.772 255.707 426.96L128.293 554.374C128.105 554.561 128 554.816 128 555.081V894C128 895.105 128.895 896 130 896H894C895.105 896 896 895.105 896 894V555.081C896 554.816 895.895 554.561 895.707 554.374L768.293 426.96C768.105 426.772 767.851 426.667 767.586 426.667H725.333" stroke="black" stroke-width="20" stroke-linecap="round"/>
</svg>
