<svg width="1024" height="1024" viewBox="0 0 1024 1024" fill="none" xmlns="http://www.w3.org/2000/svg">
    <path d="M511.5 588.8H302.103C300.574 588.8 299.81 588.8 299.521 588.303C299.231 587.806 299.609 587.141 300.364 585.812L511.065 214.978L511.065 214.978C511.44 214.319 511.628 213.989 511.814 214.038C512 214.087 512 214.466 512 215.225V215.225V434.7C512 434.936 512 435.054 512.073 435.127C512.146 435.2 512.264 435.2 512.5 435.2H721.897C723.426 435.2 724.19 435.2 724.479 435.697C724.768 436.194 724.391 436.859 723.636 438.188L512.935 809.022C512.56 809.682 512.372 810.012 512.186 809.962C512 809.913 512 809.534 512 808.775V589.3C512 589.064 512 588.946 511.927 588.873C511.854 588.8 511.736 588.8 511.5 588.8Z" stroke="black" stroke-width="20"/>
    <circle cx="512" cy="512" r="384" stroke="black" stroke-width="20"/>
</svg>
