<svg width="1024" height="1024" viewBox="0 0 1024 1024" fill="none" xmlns="http://www.w3.org/2000/svg">
    <path d="M170.667 388.008C170.667 386.123 170.667 385.18 171.252 384.594C171.838 384.008 172.781 384.008 174.667 384.008H849.333C851.219 384.008 852.162 384.008 852.747 384.594C853.333 385.18 853.333 386.123 853.333 388.008V890.008C853.333 892.837 853.333 894.251 852.455 895.13C851.576 896.008 850.162 896.008 847.333 896.008H176.667C173.838 896.008 172.424 896.008 171.545 895.13C170.667 894.251 170.667 892.837 170.667 890.008V388.008Z" stroke="black" stroke-width="20"/>
    <path d="M703.998 384L707.308 357.522C718.355 269.134 678.582 182.078 604.534 132.567V132.567C516.367 73.6163 399.67 80.8822 319.497 150.315L284.581 180.552" stroke="black" stroke-width="20" stroke-linecap="round"/>
    <ellipse cx="512" cy="640" rx="85.3333" ry="85.3333" fill="black"/>
</svg>
